<svg width="22" height="22" viewBox="0 0 22 22" fill="none" xmlns="http://www.w3.org/2000/svg">
<path fill-rule="evenodd" clip-rule="evenodd" d="M11 0C4.925 0 0 4.925 0 11C0 17.075 4.925 22 11 22C17.075 22 22 17.075 22 11C22 4.925 17.075 0 11 0ZM15.53 9.47L11.53 5.47C11.3894 5.32955 11.1988 5.25066 11 5.25066C10.8012 5.25066 10.6106 5.32955 10.47 5.47L6.47 9.47C6.39631 9.53866 6.33721 9.62146 6.29622 9.71346C6.25523 9.80546 6.23319 9.90477 6.23141 10.0055C6.22963 10.1062 6.24816 10.2062 6.28588 10.2996C6.3236 10.393 6.37974 10.4778 6.45096 10.549C6.52218 10.6203 6.60701 10.6764 6.7004 10.7141C6.79379 10.7518 6.89382 10.7704 6.99452 10.7686C7.09523 10.7668 7.19454 10.7448 7.28654 10.7038C7.37854 10.6628 7.46134 10.6037 7.53 10.53L10.25 7.81L10.25 16C10.25 16.1989 10.329 16.3897 10.4697 16.5303C10.6103 16.671 10.8011 16.75 11 16.75C11.1989 16.75 11.3897 16.671 11.5303 16.5303C11.671 16.3897 11.75 16.1989 11.75 16L11.75 7.81L14.47 10.53C14.5387 10.6037 14.6215 10.6628 14.7135 10.7038C14.8055 10.7448 14.9048 10.7668 15.0055 10.7686C15.1062 10.7704 15.2062 10.7518 15.2996 10.7141C15.393 10.6764 15.4778 10.6203 15.549 10.549C15.6203 10.4778 15.6764 10.393 15.7141 10.2996C15.7518 10.2062 15.7704 10.1062 15.7686 10.0055C15.7668 9.90477 15.7448 9.80546 15.7038 9.71346C15.6628 9.62146 15.6037 9.53866 15.53 9.47Z" fill="white"/>
</svg>
