<svg width="23" height="22" viewBox="0 0 23 22" fill="none" xmlns="http://www.w3.org/2000/svg">
<path fill-rule="evenodd" clip-rule="evenodd" d="M11.5 22C17.575 22 22.5 17.075 22.5 11C22.5 4.925 17.575 0 11.5 0C5.425 0 0.5 4.925 0.5 11C0.5 17.075 5.425 22 11.5 22ZM6.97 12.53L10.97 16.53C11.1106 16.6705 11.3012 16.7493 11.5 16.7493C11.6988 16.7493 11.8894 16.6705 12.03 16.53L16.03 12.53C16.1037 12.4613 16.1628 12.3785 16.2038 12.2865C16.2448 12.1945 16.2668 12.0952 16.2686 11.9945C16.2704 11.8938 16.2518 11.7938 16.2141 11.7004C16.1764 11.607 16.1203 11.5222 16.049 11.451C15.9778 11.3797 15.893 11.3236 15.7996 11.2859C15.7062 11.2482 15.6062 11.2296 15.5055 11.2314C15.4048 11.2332 15.3055 11.2552 15.2135 11.2962C15.1215 11.3372 15.0387 11.3963 14.97 11.47L12.25 14.19V6C12.25 5.80109 12.171 5.61032 12.0303 5.46967C11.8897 5.32902 11.6989 5.25 11.5 5.25C11.3011 5.25 11.1103 5.32902 10.9697 5.46967C10.829 5.61032 10.75 5.80109 10.75 6V14.19L8.03 11.47C7.96134 11.3963 7.87854 11.3372 7.78654 11.2962C7.69454 11.2552 7.59522 11.2332 7.49452 11.2314C7.39382 11.2296 7.29379 11.2482 7.2004 11.2859C7.10701 11.3236 7.02218 11.3797 6.95096 11.451C6.87974 11.5222 6.8236 11.607 6.78588 11.7004C6.74816 11.7938 6.72963 11.8938 6.73141 11.9945C6.73318 12.0952 6.75523 12.1945 6.79622 12.2865C6.83721 12.3785 6.89631 12.4613 6.97 12.53Z" fill="#8774E1"/>
</svg>
