<svg width="22" height="22" viewBox="0 0 22 22" fill="none" xmlns="http://www.w3.org/2000/svg">
<g clip-path="url(#clip0_1_83)">
<path fill-rule="evenodd" clip-rule="evenodd" d="M11 22C17.075 22 22 17.075 22 11C22 4.925 17.075 0 11 0C4.925 0 0 4.925 0 11C0 17.075 4.925 22 11 22ZM6.47 12.53L10.47 16.53C10.6106 16.6705 10.8012 16.7493 11 16.7493C11.1988 16.7493 11.3894 16.6705 11.53 16.53L15.53 12.53C15.6037 12.4613 15.6628 12.3785 15.7038 12.2865C15.7448 12.1945 15.7668 12.0952 15.7686 11.9945C15.7704 11.8938 15.7518 11.7938 15.7141 11.7004C15.6764 11.607 15.6203 11.5222 15.549 11.451C15.4778 11.3797 15.393 11.3236 15.2996 11.2859C15.2062 11.2482 15.1062 11.2296 15.0055 11.2314C14.9048 11.2332 14.8055 11.2552 14.7135 11.2962C14.6215 11.3372 14.5387 11.3963 14.47 11.47L11.75 14.19V6C11.75 5.80109 11.671 5.61032 11.5303 5.46967C11.3897 5.32902 11.1989 5.25 11 5.25C10.8011 5.25 10.6103 5.32902 10.4697 5.46967C10.329 5.61032 10.25 5.80109 10.25 6V14.19L7.53 11.47C7.46134 11.3963 7.37854 11.3372 7.28654 11.2962C7.19454 11.2552 7.09522 11.2332 6.99452 11.2314C6.89382 11.2296 6.79379 11.2482 6.7004 11.2859C6.60701 11.3236 6.52218 11.3797 6.45096 11.451C6.37974 11.5222 6.3236 11.607 6.28588 11.7004C6.24816 11.7938 6.22963 11.8938 6.23141 11.9945C6.23318 12.0952 6.25523 12.1945 6.29622 12.2865C6.33721 12.3785 6.39631 12.4613 6.47 12.53Z" fill="white"/>
</g>
<defs>
<clipPath id="clip0_1_83">
<rect width="22" height="22" fill="white"/>
</clipPath>
</defs>
</svg>
