<svg width="13" height="12" viewBox="0 0 13 12" fill="none" xmlns="http://www.w3.org/2000/svg">
<path d="M2.26798 5.86005C2.1851 5.7556 2.08217 5.66877 1.96524 5.60469C1.84831 5.5406 1.71974 5.50055 1.5871 5.48688C1.45446 5.47322 1.32043 5.48622 1.19289 5.52512C1.06534 5.56402 0.946871 5.62803 0.844435 5.7134C0.741999 5.79876 0.657669 5.90375 0.596408 6.02218C0.535146 6.14062 0.498189 6.27011 0.487711 6.40304C0.477234 6.53597 0.493447 6.66965 0.535397 6.79622C0.577347 6.92279 0.644186 7.0397 0.731984 7.14005L2.26798 5.86005ZM5.24998 11.0001L4.48198 11.6401C4.5819 11.7599 4.70846 11.8547 4.85157 11.9169C4.99467 11.979 5.15033 12.0069 5.30611 11.9981C5.46189 11.9894 5.61347 11.9443 5.74871 11.8665C5.88395 11.7887 5.99911 11.6803 6.08498 11.5501L5.24998 11.0001ZM12.335 2.05005C12.4098 1.94045 12.4621 1.81704 12.4887 1.68702C12.5154 1.55701 12.5159 1.42299 12.4902 1.29278C12.4646 1.16257 12.4132 1.03877 12.3392 0.928602C12.2652 0.818433 12.17 0.724096 12.0592 0.651091C11.9483 0.578087 11.8241 0.527875 11.6937 0.503382C11.5632 0.47889 11.4292 0.480607 11.2994 0.508433C11.1697 0.53626 11.0467 0.589639 10.9378 0.66546C10.8289 0.74128 10.7361 0.838025 10.665 0.950055L12.335 2.05005ZM0.731984 7.14005L4.48198 11.6401L6.01798 10.3601L2.26798 5.86005L0.731984 7.14005ZM6.08498 11.5501L12.335 2.05005L10.665 0.950055L4.41498 10.4501L6.08498 11.5501Z" fill="black"/>
</svg>
