<svg width="22" height="22" viewBox="0 0 22 22" fill="none" xmlns="http://www.w3.org/2000/svg">
<g clip-path="url(#clip0_35_18)">
<path d="M12.2493 1.885V2.29946L12.6566 2.37632C14.4639 2.71744 15.7366 3.71733 16.5833 4.98632C17.617 6.53839 17.9993 8.46574 17.9993 10V15.69V15.8971L18.1458 16.0436L19.9256 17.8233C19.9605 17.8583 19.9843 17.9028 19.9939 17.9513C20.0035 17.9998 19.9986 18.05 19.9797 18.0956C19.9608 18.1413 19.9288 18.1803 19.8877 18.2078C19.8466 18.2353 19.7983 18.25 19.7489 18.25H2.74978C2.70037 18.25 2.65208 18.2353 2.611 18.2078C2.56993 18.1803 2.53792 18.1413 2.51902 18.0956C2.50011 18.05 2.49516 17.9998 2.50479 17.9513C2.51442 17.9028 2.5382 17.8583 2.57311 17.8233L4.35289 16.0436L4.49934 15.8971V15.69V10C4.49934 8.4657 4.88169 6.53837 5.91637 4.98635L5.91641 4.98628C6.76201 3.71742 8.03471 2.71746 9.84208 2.37632L10.2493 2.29946V1.885V1.5C10.2493 1.23478 10.3547 0.98043 10.5422 0.792893C10.7298 0.605357 10.9841 0.5 11.2493 0.5C11.5146 0.5 11.7689 0.605357 11.9564 0.792893C12.144 0.98043 12.2493 1.23478 12.2493 1.5V1.885ZM4.6918 16.4114L5.03034 16.75L4.69179 16.4114L4.20679 16.8964L3.35323 17.75H4.56034H17.9383H19.1454L18.2919 16.8964L17.8069 16.4114L17.7889 16.3934L17.7833 16.3878L17.7775 16.3824C17.7126 16.3215 17.6551 16.2532 17.6061 16.179C17.5669 16.1139 17.5378 16.0433 17.5198 15.9696C17.5002 15.8841 17.4993 15.7913 17.4993 15.695V10C17.4993 8.53422 17.1317 6.71167 16.1665 5.2638C15.2102 3.82833 13.6589 2.75 11.2493 2.75C8.83892 2.75 7.28978 3.82818 6.3336 5.26322C5.36595 6.71146 4.99934 8.53441 4.99934 10V15.696C4.99934 15.7924 4.99832 15.8848 4.97833 15.9676L4.97829 15.9677C4.95984 16.0442 4.92947 16.1173 4.88829 16.1843C4.84285 16.258 4.77679 16.3264 4.71079 16.3924L4.6918 16.4114Z" stroke="black"/>
<path d="M9.80503 21.0414C9.59099 20.8902 9.40339 20.7072 9.24795 20.5H13.2507C13.0952 20.7072 12.9076 20.8902 12.6936 21.0414C12.2712 21.3399 11.7667 21.5001 11.2495 21.5L11.2492 21.5C10.732 21.5001 10.2274 21.3399 9.80503 21.0414Z" stroke="black"/>
<rect x="10.5" y="1.5" width="1" height="1" fill="#D9D9D9" stroke="black"/>
</g>
<defs>
<clipPath id="clip0_35_18">
<rect width="22" height="22" fill="white"/>
</clipPath>
</defs>
</svg>
