<svg width="46" height="46" viewBox="0 0 46 46" fill="none" xmlns="http://www.w3.org/2000/svg">
<g clip-path="url(#clip0_1_192)">
<path d="M45.3064 28.5638C42.2348 40.886 29.755 48.384 17.4316 45.3112C5.11509 42.2407 -2.38406 29.7586 0.689889 17.4387C3.75924 5.11526 16.239 -2.38389 28.5578 0.687762C40.8801 3.76056 48.3781 16.2415 45.3064 28.5638Z" fill="#F7931A"/>
<path d="M33.1395 19.7283C33.5972 16.6681 31.2673 15.0225 28.0795 13.9254L29.1145 9.77845L26.5903 9.15055L25.584 13.1871C24.9205 13.0215 24.2385 12.8651 23.5612 12.711L24.5755 8.648L22.0524 8.01895L21.0185 12.1636C20.4803 12.0424 19.9432 11.9159 19.4074 11.7841L19.4097 11.7726L15.9298 10.902L15.2582 13.5976C15.2582 13.5976 17.1304 14.0277 17.0913 14.0542C18.1136 14.3083 18.2988 14.9857 18.2677 15.5216L17.0901 20.2446C17.1603 20.263 17.2511 20.2883 17.3523 20.3297L17.0855 20.263L15.4353 26.8801C15.3099 27.1906 14.9925 27.6564 14.2784 27.4793C14.3037 27.5161 12.4441 27.0216 12.4441 27.0216L11.1906 29.9104L14.4762 30.7292C15.0857 30.8833 15.6848 31.0431 16.2748 31.1938L15.2306 35.3878L17.7514 36.0169L18.7864 31.8677C19.4741 32.054 20.1434 32.2265 20.7966 32.3898L19.7662 36.5182L22.2904 37.1473L23.3346 32.9613C27.6379 33.7767 30.874 33.4478 32.2356 29.555C33.3339 26.4213 32.1816 24.6135 29.9172 23.4347C31.5663 23.0552 32.8095 21.9696 33.1407 19.7294L33.1395 19.7283ZM27.3723 27.8151C26.5926 30.9488 21.3164 29.2549 19.6052 28.8294L20.9909 23.2749C22.7021 23.7004 28.1865 24.5468 27.3723 27.8151ZM28.1543 19.6834C27.4413 22.5343 23.0494 21.0864 21.6257 20.7299L22.8815 15.6918C24.3064 16.0471 28.8949 16.7095 28.1531 19.6823L28.1543 19.6834Z" fill="white"/>
</g>
<defs>
<clipPath id="clip0_1_192">
<rect width="46" height="46" fill="white"/>
</clipPath>
</defs>
</svg>
