<svg width="22" height="22" viewBox="0 0 22 22" fill="none" xmlns="http://www.w3.org/2000/svg">
<path d="M11.6866 7.11995C11.6866 6.05194 12.5524 5.18614 13.6205 5.18614V5.18614C14.6885 5.18614 15.5543 6.05194 15.5543 7.11995V11.7622H11.6866V7.11995Z" fill="#8774E1"/>
<path d="M10.3253 15.6718C10.3253 16.74 9.45934 17.606 8.39109 17.606V17.606C7.32285 17.606 6.45687 16.74 6.45687 15.6718V11.0448H10.3253L10.3253 15.6718Z" fill="#8774E1"/>
<path d="M11.6866 11.7473L12.5339 11.6277L15.5578 11.7622V13.481L14.1193 12.0092C14.085 11.9741 14.0483 11.9415 14.0094 11.9117V11.9117L13.9363 11.8668V11.8668C13.8688 11.8273 13.7943 11.801 13.717 11.7891L13.688 11.7846V11.7846C13.6394 11.7797 13.5904 11.7795 13.5418 11.784L13.5346 11.7846L13.5023 11.7912C13.4509 11.8018 13.4006 11.8171 13.352 11.837V11.837L13.3214 11.8495C13.2932 11.861 13.266 11.8751 13.2403 11.8916V11.8916C13.1885 11.9247 13.142 11.9656 13.1025 12.0127L13.0744 12.0462L13.0525 12.0783C12.9994 12.1558 12.9616 12.2427 12.9409 12.3344V12.3344C12.9325 12.3713 12.9283 12.409 12.9283 12.4469V12.5154C12.9283 12.561 12.9355 12.6063 12.9497 12.6497L12.9722 12.7187L12.9834 12.7476C13.0145 12.827 13.0625 12.8988 13.1241 12.9579V12.9579L15.9669 15.8573L11.6866 16.2011V11.7473Z" fill="#8774E1"/>
<path d="M10.3146 11.0747L9.46748 11.1957L6.44336 11.0664L6.44336 9.37092L7.93308 10.8695L7.99159 10.9143L8.0647 10.959V10.959C8.13233 10.9984 8.20679 11.0246 8.28417 11.0364L8.31318 11.0408V11.0408C8.36176 11.0457 8.41071 11.0458 8.45932 11.0412L8.46656 11.0405L8.49879 11.0339C8.55021 11.0232 8.60052 11.0079 8.64908 10.9879V10.9879L8.67965 10.9753C8.70787 10.9637 8.73499 10.9496 8.76067 10.9331V10.9331C8.81247 10.8999 8.85888 10.8589 8.89832 10.8117L8.92629 10.7782L8.94819 10.7461C9.00112 10.6684 9.03885 10.5814 9.05938 10.4898V10.4898C9.06764 10.4528 9.07179 10.4151 9.07172 10.3772L9.07161 10.3087C9.07154 10.2631 9.06427 10.2178 9.05008 10.1745L9.02746 10.1054L9.01614 10.0766C8.98494 9.99723 8.93684 9.92555 8.87516 9.86658V9.86658L7.45141 8.41927L6.73954 7.69562L6.3836 7.3338L6.23772 7.18886V7.18886C6.11575 7.07368 5.95435 7.00951 5.78659 7.00951L5.74104 7.00951L3.82851 3.7663L10.782 3.04891L10.3073 6.62092L10.3146 11.0747Z" fill="#8774E1"/>
<path d="M1.18991 11.1042L2.05861 11.223L2.76092 15.5883L4.49928 18.1739L6.6613 18.4579V18.4579C5.68202 17.7441 5.10287 16.6053 5.10287 15.3935L5.10287 9.35599L3.6082 10.8804L3.54976 10.9253L3.47672 10.9701V10.9701C3.40869 10.9974 3.33835 11.0185 3.26655 11.0332L3.22838 11.041L3.15534 11.041L3.06769 11.041V11.041C2.75076 10.9907 2.50977 10.7295 2.48508 10.4095L2.48336 10.3872V10.3872C2.4739 10.242 2.51369 10.0979 2.5963 9.9781L2.66136 9.88377L4.11597 8.42277L4.84328 7.69227L5.20693 7.32703L5.31487 7.22745C5.46676 7.08733 5.66583 7.00952 5.87247 7.00952V7.00952L5.86329 6.98352L7.8142 3.72909L3.22838 4.94701L1.18262 6.62342L1.18991 11.1042Z" fill="#8774E1"/>
<path d="M20.835 11C20.835 16.4317 16.4317 20.835 11 20.835C5.56828 20.835 1.165 16.4317 1.165 11C1.165 5.56828 5.56828 1.165 11 1.165C16.4317 1.165 20.835 5.56828 20.835 11Z" stroke="#8774E1" stroke-width="2.33"/>
<path d="M11.6866 15.8424H15.777L15.7185 15.6033L15.9022 15.7509C15.916 15.762 15.9316 15.7707 15.9483 15.7767L16.0035 15.7965C16.1412 15.8458 16.2908 15.8508 16.4315 15.8108V15.8108C16.4624 15.802 16.4918 15.7886 16.5187 15.7709L16.6827 15.663L19.3414 12.9579L19.3466 12.9518C19.4201 12.8673 19.4732 12.7671 19.5021 12.659V12.659L20.2179 12.8084L16.7411 19.9973H11.6866V15.8424Z" fill="#8774E1"/>
<path d="M6.45679 3.33904C6.45679 2.79672 6.89643 2.35708 7.43875 2.35708H15.4019C15.8026 2.35708 16.1274 2.6819 16.1274 3.0826V3.0826C16.1274 3.48278 15.8034 3.80739 15.4032 3.80812L13.7317 3.81114H13.6733H13.5856H13.5272L13.3227 3.82175L13.0743 3.85598L12.8552 3.90082L12.5922 3.97554L12.227 4.125L12.1315 4.18088C11.8549 4.34257 11.5935 4.52896 11.3505 4.73777V4.73777L11.0584 5.05163L11.0367 5.08251C10.876 5.31073 10.732 5.55014 10.6055 5.79891V5.79891L10.4887 6.12772L10.401 6.45652L10.3426 6.78533L10.3134 7.08424L6.80118 4.08587C6.58264 3.8993 6.45679 3.62638 6.45679 3.33904V3.33904Z" fill="#8774E1"/>
<path d="M2.95081 4.90217H7.62544V6.99457H2.95081V4.90217Z" fill="#8774E1"/>
<path d="M16.9163 8.19022V7.19804C16.9163 6.83526 16.8622 6.47451 16.7556 6.12772V6.12772V6.12772C16.6295 5.7902 16.4629 5.46923 16.2594 5.17185L16.1567 5.02174V5.02174C15.9914 4.83273 15.8112 4.6573 15.6178 4.49715L15.6016 4.4837L15.2948 4.27446L14.8712 4.06522L14.806 4.03992C14.5677 3.94745 14.3202 3.88077 14.0677 3.84103V3.84103L13.3519 3.78125L16.332 2.94429L18.2311 4.30435L21.591 8.19022V11.8004H16.9163V8.19022Z" fill="#8774E1"/>
<rect x="7.01196" y="2.24185" width="4.67463" height="2.09239" fill="#8774E1"/>
<path d="M18.4355 11.6277H19.7795V11.8031L19.6919 12.5095L19.5019 12.644L19.5166 12.5394V12.4735C19.5166 12.3986 19.5017 12.3245 19.4727 12.2554V12.2554L19.445 12.1947C19.3962 12.0876 19.3201 11.9952 19.2244 11.9266V11.9266L19.1993 11.9103C19.1101 11.8522 19.0087 11.8156 18.903 11.8031V11.8031H18.4355V11.6277Z" fill="#8774E1"/>
<path d="M19.7921 12.4005L19.121 11.2092L18.9724 11.2968L18.418 11.7273L18.3989 11.9628L18.4133 11.9513C18.4578 11.9156 18.5062 11.8853 18.5575 11.8611V11.8611C18.6123 11.8352 18.6705 11.8176 18.7301 11.8089L18.7424 11.8071L18.8058 11.7982C18.9218 11.782 19.0396 11.8001 19.1451 11.8506V11.8506L19.1701 11.8639C19.2647 11.9145 19.3468 11.9862 19.4101 12.0738V12.0738L19.6436 12.4881L19.7921 12.4005Z" fill="#8774E1"/>
<path d="M16.9164 11.3587H17.267L18.6109 11.7473L16.9164 13.481V11.3587Z" fill="#8774E1"/>
<path d="M7.2749 18.981L8.33969 18.9736C10.1573 18.9611 11.6377 17.5099 11.6866 15.6929V15.6929L12.5631 19.788L10.1235 21.2826L7.43559 20.4457L7.2749 18.981Z" fill="#8774E1"/>
<path d="M7.18726 18.7418V18.7418C7.64181 18.8903 8.1179 18.9619 8.596 18.9539L8.76495 18.9511L8.70651 19.788H7.27491L7.18726 18.7418Z" fill="#8774E1"/>
</svg>
