<svg width="22" height="22" viewBox="0 0 22 22" fill="none" xmlns="http://www.w3.org/2000/svg">
<path fill-rule="evenodd" clip-rule="evenodd" d="M7.06115 1.61374C7.16608 1.52853 7.25028 1.42573 7.30872 1.31147C7.36715 1.19721 7.39864 1.07384 7.40128 0.948721C7.40393 0.823601 7.37768 0.699298 7.32411 0.583233C7.27054 0.467167 7.19075 0.36172 7.08949 0.273184C6.98824 0.184649 6.8676 0.114842 6.73477 0.0679299C6.60194 0.0210178 6.45966 -0.00203724 6.31641 0.000141156C6.17315 0.00231955 6.03187 0.0296866 5.901 0.0806087C5.77012 0.131531 5.65234 0.204964 5.55467 0.296524L0.311485 4.87337C0.112019 5.048 0 5.2846 0 5.53128C0 5.77795 0.112019 6.01456 0.311485 6.18919L5.55626 10.766C5.75929 10.9266 6.02529 11.0128 6.29912 11.0068C6.57294 11.0008 6.83361 10.9029 7.0271 10.7336C7.22058 10.5642 7.33204 10.3363 7.33838 10.0971C7.34472 9.85796 7.24545 9.62581 7.06115 9.44881L3.63849 6.4621H19.9419C20.0854 6.46695 20.2284 6.44646 20.3626 6.40186C20.4967 6.35727 20.6191 6.28948 20.7226 6.20257C20.826 6.11566 20.9083 6.01141 20.9645 5.89606C21.0207 5.78071 21.0497 5.65664 21.0497 5.53128C21.0497 5.40592 21.0207 5.28185 20.9645 5.1665C20.9083 5.05115 20.826 4.9469 20.7226 4.85998C20.6191 4.77307 20.4967 4.70529 20.3626 4.66069C20.2284 4.6161 20.0854 4.59561 19.9419 4.60045H3.63849L7.06115 1.61374ZM14.9506 12.597C14.8458 12.5117 14.7617 12.4089 14.7034 12.2945C14.6451 12.1802 14.6138 12.0568 14.6113 11.9317C14.6088 11.8066 14.6352 11.6823 14.6889 11.5663C14.7426 11.4503 14.8226 11.3449 14.9239 11.2565C15.0253 11.168 15.146 11.0983 15.2789 11.0515C15.4118 11.0047 15.5541 10.9818 15.6973 10.9841C15.8406 10.9864 15.9818 11.0139 16.1126 11.065C16.2435 11.116 16.3612 11.1896 16.4587 11.2812L21.6891 15.8581C22.1036 16.2201 22.1036 16.8091 21.6891 17.1725L16.4603 21.7493C16.2584 21.914 15.9912 22.0038 15.715 21.9999C15.4388 21.9959 15.1752 21.8985 14.9795 21.7282C14.7839 21.5579 14.6715 21.3279 14.6662 21.0867C14.6608 20.8454 14.7628 20.6118 14.9506 20.4349L18.3653 17.4468H2.10491C1.82206 17.4468 1.5508 17.3487 1.35079 17.174C1.15078 16.9993 1.03842 16.7623 1.03842 16.5153C1.03842 16.2682 1.15078 16.0313 1.35079 15.8566C1.5508 15.6819 1.82206 15.5838 2.10491 15.5838H18.3653L14.9506 12.597Z" fill="white"/>
</svg>
