<svg width="22" height="22" viewBox="0 0 22 22" fill="none" xmlns="http://www.w3.org/2000/svg">
<g clip-path="url(#clip0_35_17)">
<path d="M18.173 3.757C16.356 2.057 13.813 1 11 1C5.477 1 1 5.07 1 10.09C1 12.954 2.338 15.302 4.614 16.968C4.904 17.181 5.173 18.365 4.524 19.36C4.259 19.766 3.967 20.083 3.742 20.326C3.417 20.678 3.232 20.878 3.472 20.979C3.722 21.084 5.2 21.136 6.266 20.538C7.101 20.069 7.606 19.602 7.947 19.288C8.229 19.028 8.397 18.872 8.546 18.906C9.079 19.028 9.628 19.112 10.191 19.153L10.214 19.154C10.474 19.172 10.735 19.182 11 19.182C16.523 19.182 21 15.112 21 10.091C21 7.628 19.923 5.394 18.173 3.757Z" stroke="black" stroke-width="1.6" stroke-linecap="round"/>
<path d="M11.75 10.25C11.75 10.6642 11.4142 11 11 11C10.5858 11 10.25 10.6642 10.25 10.25C10.25 9.83579 10.5858 9.5 11 9.5C11.4142 9.5 11.75 9.83579 11.75 10.25Z" stroke="black"/>
<path d="M6.75 10.25C6.75 10.6642 6.41421 11 6 11C5.58579 11 5.25 10.6642 5.25 10.25C5.25 9.83579 5.58579 9.5 6 9.5C6.41421 9.5 6.75 9.83579 6.75 10.25Z" stroke="black"/>
<path d="M16.75 10.25C16.75 10.6642 16.4142 11 16 11C15.5858 11 15.25 10.6642 15.25 10.25C15.25 9.83579 15.5858 9.5 16 9.5C16.4142 9.5 16.75 9.83579 16.75 10.25Z" stroke="black"/>
</g>
<defs>
<clipPath id="clip0_35_17">
<rect width="22" height="22" fill="white"/>
</clipPath>
</defs>
</svg>
