<svg width="22" height="22" viewBox="0 0 22 22" fill="none" xmlns="http://www.w3.org/2000/svg">
<path fill-rule="evenodd" clip-rule="evenodd" d="M0 11C0 4.925 4.925 0 11 0C17.075 0 22 4.925 22 11C22 17.075 17.075 22 11 22C4.925 22 0 17.075 0 11ZM11 5.25C11.1989 5.25 11.3897 5.32902 11.5303 5.46967C11.671 5.61032 11.75 5.80109 11.75 6V10.25H16C16.1989 10.25 16.3897 10.329 16.5303 10.4697C16.671 10.6103 16.75 10.8011 16.75 11C16.75 11.1989 16.671 11.3897 16.5303 11.5303C16.3897 11.671 16.1989 11.75 16 11.75H11.75V16C11.75 16.1989 11.671 16.3897 11.5303 16.5303C11.3897 16.671 11.1989 16.75 11 16.75C10.8011 16.75 10.6103 16.671 10.4697 16.5303C10.329 16.3897 10.25 16.1989 10.25 16V11.75H6C5.80109 11.75 5.61032 11.671 5.46967 11.5303C5.32902 11.3897 5.25 11.1989 5.25 11C5.25 10.8011 5.32902 10.6103 5.46967 10.4697C5.61032 10.329 5.80109 10.25 6 10.25H10.25V6C10.25 5.80109 10.329 5.61032 10.4697 5.46967C10.6103 5.32902 10.8011 5.25 11 5.25Z" fill="#8774E1"/>
</svg>
