<svg width="22" height="22" viewBox="0 0 22 22" fill="none" xmlns="http://www.w3.org/2000/svg">
<g clip-path="url(#clip0_36_24)">
<path d="M11 21C16.5228 21 21 16.5228 21 11C21 5.47715 16.5228 1 11 1C5.47715 1 1 5.47715 1 11C1 16.5228 5.47715 21 11 21Z" stroke="black" stroke-width="1.6"/>
<path d="M10.2727 15.0909C10.2727 15.2837 10.3493 15.4687 10.4857 15.6051C10.6221 15.7415 10.8071 15.8181 11 15.8181C11.1929 15.8181 11.3778 15.7415 11.5142 15.6051C11.6506 15.4687 11.7273 15.2837 11.7273 15.0909H10.2727ZM11.7273 6.90904C11.7273 6.71615 11.6506 6.53117 11.5142 6.39478C11.3778 6.25839 11.1929 6.18176 11 6.18176C10.8071 6.18176 10.6221 6.25839 10.4857 6.39478C10.3493 6.53117 10.2727 6.71615 10.2727 6.90904H11.7273ZM11.7273 15.0909V6.90904H10.2727V15.0909H11.7273Z" fill="black"/>
<path d="M15.0909 11.7273C15.2837 11.7273 15.4687 11.6506 15.6051 11.5142C15.7415 11.3778 15.8181 11.1929 15.8181 11C15.8181 10.8071 15.7415 10.6221 15.6051 10.4857C15.4687 10.3493 15.2837 10.2727 15.0909 10.2727V11.7273ZM6.90904 10.2727C6.71615 10.2727 6.53117 10.3493 6.39478 10.4857C6.25839 10.6221 6.18176 10.8071 6.18176 11C6.18176 11.1929 6.25839 11.3778 6.39478 11.5142C6.53117 11.6506 6.71615 11.7273 6.90904 11.7273V10.2727ZM15.0909 10.2727H6.90904V11.7273H15.0909V10.2727Z" fill="black"/>
</g>
<defs>
<clipPath id="clip0_36_24">
<rect width="22" height="22" fill="white"/>
</clipPath>
</defs>
</svg>
