<svg width="46" height="46" viewBox="0 0 46 46" fill="none" xmlns="http://www.w3.org/2000/svg">
<g clip-path="url(#clip0_1_187)">
<path d="M46 23C46 10.2975 35.7025 0 23 0C10.2975 0 0 10.2975 0 23C0 35.7025 10.2975 46 23 46C35.7025 46 46 35.7025 46 23Z" fill="#2AAF86"/>
<path d="M25.3345 25.0022V24.9999C25.2034 25.0091 24.5272 25.0482 23.0218 25.0482C21.8178 25.0482 20.9737 25.0137 20.6747 24.9999V25.0022C16.0448 24.7986 12.5902 23.9936 12.5902 23.0276C12.5902 22.0639 16.0471 21.2566 20.6747 21.0519V24.2006C20.976 24.2225 21.8442 24.2742 23.0437 24.2742C24.4812 24.2742 25.2011 24.2133 25.3345 24.2006V21.0565C29.9552 21.2635 33.3994 22.0685 33.3994 23.0311C33.3994 23.9948 29.9529 24.7998 25.3345 25.0068M25.3345 20.7299V17.9147H31.7814V13.6195H14.2313V17.9136H20.677V20.7311C15.4376 20.9714 11.5 22.0076 11.5 23.2507C11.5 24.495 15.441 25.5312 20.677 25.775V34.8025H25.338V25.775C30.567 25.5323 34.5 24.4973 34.5 23.253C34.5 22.0122 30.5682 20.9737 25.338 20.7322" fill="white"/>
</g>
<defs>
<clipPath id="clip0_1_187">
<rect width="46" height="46" fill="white"/>
</clipPath>
</defs>
</svg>
