<svg width="46" height="46" viewBox="0 0 46 46" fill="none" xmlns="http://www.w3.org/2000/svg">
<g clip-path="url(#clip0_1_184)">
<path d="M46 23C46 10.2975 35.7025 0 23 0C10.2975 0 0 10.2975 0 23C0 35.7025 10.2975 46 23 46C35.7025 46 46 35.7025 46 23Z" fill="#0E98DD"/>
<path fill-rule="evenodd" clip-rule="evenodd" d="M16.6232 13.547H29.3756C30.1772 13.547 30.8568 13.547 31.395 13.5953C31.9378 13.6448 32.5289 13.7563 33.0303 14.1243C33.3704 14.3736 33.6539 14.6921 33.8622 15.0588C34.0705 15.4254 34.1989 15.832 34.239 16.2518C34.2987 16.8694 34.0917 17.4363 33.8571 17.9274C33.6248 18.4138 33.2764 18.9992 32.867 19.6869L23.9878 34.6047C23.886 34.776 23.7413 34.9179 23.568 35.0165C23.3947 35.115 23.1988 35.1668 22.9994 35.1668C22.8001 35.1668 22.6041 35.115 22.4309 35.0165C22.2576 34.9179 22.1129 34.776 22.011 34.6047L13.133 19.688C12.7224 18.998 12.374 18.4138 12.1417 17.9274C11.9071 17.4352 11.7001 16.8694 11.7599 16.2518C11.7999 15.832 11.9283 15.4254 12.1366 15.0588C12.3449 14.6921 12.6285 14.3736 12.9685 14.1243C13.4699 13.7563 14.061 13.6448 14.6038 13.5953C15.142 13.5459 15.8228 13.547 16.6232 13.547ZM14.3267 15.9804C14.2488 16.0379 14.1839 16.1111 14.1361 16.1953C14.0884 16.2795 14.0589 16.3728 14.0495 16.4692C14.0495 16.4772 14.053 16.5934 14.2174 16.9361C14.3991 17.3156 14.6912 17.8101 15.1363 18.5576L21.85 29.8356V15.847H16.6785C15.8067 15.847 15.234 15.8482 14.8154 15.8873C14.4359 15.9218 14.3336 15.9781 14.3267 15.9816V15.9804ZM24.15 15.847V29.8368L30.8637 18.5587C31.3087 17.8112 31.6009 17.3167 31.7837 16.9372C31.947 16.5945 31.9505 16.4772 31.9505 16.4703C31.9411 16.374 31.9116 16.2806 31.8639 16.1964C31.8161 16.1122 31.7512 16.039 31.6733 15.9816C31.6664 15.977 31.5641 15.9218 31.1857 15.8873C30.7659 15.8482 30.1933 15.847 29.3227 15.847H24.15Z" fill="white"/>
</g>
<defs>
<clipPath id="clip0_1_184">
<rect width="46" height="46" fill="white"/>
</clipPath>
</defs>
</svg>
