<svg width="22" height="22" viewBox="0 0 22 22" fill="none" xmlns="http://www.w3.org/2000/svg">
<g clip-path="url(#clip0_1_81)">
<path fill-rule="evenodd" clip-rule="evenodd" d="M0 11C0 4.925 4.925 0 11 0C17.075 0 22 4.925 22 11C22 17.075 17.075 22 11 22C4.925 22 0 17.075 0 11ZM9.303 5.03C9.563 5.29 9.563 5.71 9.303 5.97L7.939 7.335H15.333C15.5094 7.335 15.6785 7.40506 15.8032 7.52977C15.9279 7.65449 15.998 7.82363 15.998 8C15.998 8.17637 15.9279 8.34551 15.8032 8.47023C15.6785 8.59494 15.5094 8.665 15.333 8.665H7.94L9.304 10.03C9.3689 10.091 9.42089 10.1644 9.45687 10.2459C9.49286 10.3273 9.51212 10.4152 9.5135 10.5043C9.51488 10.5933 9.49836 10.6817 9.46491 10.7643C9.43147 10.8468 9.38178 10.9218 9.3188 10.9848C9.25583 11.0478 9.18084 11.0975 9.09829 11.1309C9.01575 11.1644 8.92732 11.1809 8.83827 11.1795C8.74922 11.1781 8.66135 11.1589 8.57988 11.1229C8.49841 11.0869 8.425 11.0349 8.364 10.97L5.864 8.47C5.73943 8.34531 5.66945 8.17626 5.66945 8C5.66945 7.82374 5.73943 7.65469 5.864 7.53L8.364 5.03C8.624 4.77 9.043 4.77 9.303 5.03ZM12.86 11.97C12.7951 11.909 12.7431 11.8356 12.7071 11.7541C12.6711 11.6727 12.6519 11.5848 12.6505 11.4957C12.6491 11.4067 12.6656 11.3183 12.6991 11.2357C12.7325 11.1532 12.7822 11.0782 12.8452 11.0152C12.9082 10.9522 12.9832 10.9025 13.0657 10.8691C13.1483 10.8356 13.2367 10.8191 13.3257 10.8205C13.4148 10.8219 13.5027 10.8411 13.5841 10.8771C13.6656 10.9131 13.739 10.9651 13.8 11.03L16.3 13.53C16.4246 13.6547 16.4945 13.8237 16.4945 14C16.4945 14.1763 16.4246 14.3453 16.3 14.47L13.8 16.97C13.739 17.0349 13.6656 17.0869 13.5841 17.1229C13.5027 17.1589 13.4148 17.1781 13.3257 17.1795C13.2367 17.1809 13.1483 17.1644 13.0657 17.1309C12.9832 17.0975 12.9082 17.0478 12.8452 16.9848C12.7822 16.9218 12.7325 16.8468 12.6991 16.7643C12.6656 16.6817 12.6491 16.5933 12.6505 16.5043C12.6519 16.4152 12.6711 16.3273 12.7071 16.2459C12.7431 16.1644 12.7951 16.091 12.86 16.03L14.225 14.665H6.83C6.65363 14.665 6.48449 14.5949 6.35977 14.4702C6.23506 14.3455 6.165 14.1764 6.165 14C6.165 13.8236 6.23506 13.6545 6.35977 13.5298C6.48449 13.4051 6.65363 13.335 6.83 13.335H14.225L12.86 11.97Z" fill="white"/>
</g>
<defs>
<clipPath id="clip0_1_81">
<rect width="22" height="22" fill="white"/>
</clipPath>
</defs>
</svg>
