<svg width="23" height="19" viewBox="0 0 23 19" fill="none" xmlns="http://www.w3.org/2000/svg">
<path d="M19.1364 1H3.86364C2.28209 1 1 2.26853 1 3.83333V15.1667C1 16.7315 2.28209 18 3.86364 18H19.1364C20.7179 18 22 16.7315 22 15.1667V3.83333C22 2.26853 20.7179 1 19.1364 1Z" stroke="#AAAAAA" stroke-width="1.6"/>
<path d="M14 6.8H19M14 10H19M14 13.2H19" stroke="#AAAAAA" stroke-width="1.6" stroke-linecap="round"/>
<path fill-rule="evenodd" clip-rule="evenodd" d="M7.85499 10C8.82199 10 9.60499 9.105 9.60499 8C9.60499 6.895 8.82199 6 7.85499 6C6.88899 6 6.10499 6.895 6.10499 8C6.10499 9.105 6.88899 10 7.85499 10ZM5.45499 14H10.255C10.633 14 10.822 14 11.09 13.798C11.258 13.67 11.472 13.271 11.485 13.06C11.505 12.725 11.455 12.65 11.355 12.5C10.855 11.75 9.85599 11 7.85499 11C5.85499 11 4.85499 11.75 4.35499 12.5C4.25499 12.65 4.20499 12.725 4.22499 13.06C4.23799 13.27 4.45199 13.67 4.62099 13.798C4.88799 14 5.07599 14 5.45499 14Z" fill="#AAAAAA"/>
</svg>
